<mxfile host="app.diagrams.net" agent="Mozilla/5.0 (Windows NT 10.0; Win64; x64) AppleWebKit/537.36 (KHTML, like Gecko) Chrome/131.0.0.0 Safari/537.36 Edg/131.0.0.0" version="24.9.0">
  <diagram name="หน้า-1" id="wVRqIEp1OAOJQBLK5YJc">
    <mxGraphModel dx="1388" dy="623" grid="1" gridSize="10" guides="1" tooltips="1" connect="1" arrows="1" fold="1" page="1" pageScale="1" pageWidth="827" pageHeight="1169" math="0" shadow="0">
      <root>
        <mxCell id="0" />
        <mxCell id="1" parent="0" />
        <mxCell id="g-_DGgSMqAKhC7G5JaoX-2" value="" style="edgeStyle=orthogonalEdgeStyle;rounded=0;orthogonalLoop=1;jettySize=auto;html=1;" edge="1" parent="1" source="eOiUbFQpEhBaJ0-t1juN-2" target="eOiUbFQpEhBaJ0-t1juN-4">
          <mxGeometry relative="1" as="geometry" />
        </mxCell>
        <mxCell id="eOiUbFQpEhBaJ0-t1juN-2" value="Start" style="ellipse;whiteSpace=wrap;html=1;" parent="1" vertex="1">
          <mxGeometry x="354" y="20" width="120" height="80" as="geometry" />
        </mxCell>
        <mxCell id="g-_DGgSMqAKhC7G5JaoX-1" value="" style="edgeStyle=orthogonalEdgeStyle;rounded=0;orthogonalLoop=1;jettySize=auto;html=1;" edge="1" parent="1" source="eOiUbFQpEhBaJ0-t1juN-4" target="eOiUbFQpEhBaJ0-t1juN-9">
          <mxGeometry relative="1" as="geometry" />
        </mxCell>
        <mxCell id="eOiUbFQpEhBaJ0-t1juN-4" value="กำหนด a = 10" style="rounded=0;whiteSpace=wrap;html=1;" parent="1" vertex="1">
          <mxGeometry x="354" y="130" width="120" height="60" as="geometry" />
        </mxCell>
        <mxCell id="g-_DGgSMqAKhC7G5JaoX-3" value="" style="edgeStyle=orthogonalEdgeStyle;rounded=0;orthogonalLoop=1;jettySize=auto;html=1;" edge="1" parent="1" source="eOiUbFQpEhBaJ0-t1juN-9" target="eOiUbFQpEhBaJ0-t1juN-25">
          <mxGeometry relative="1" as="geometry" />
        </mxCell>
        <mxCell id="eOiUbFQpEhBaJ0-t1juN-9" value="กำหนด b = 20.0" style="whiteSpace=wrap;html=1;" parent="1" vertex="1">
          <mxGeometry x="354" y="220" width="120" height="60" as="geometry" />
        </mxCell>
        <mxCell id="eOiUbFQpEhBaJ0-t1juN-12" value="End" style="ellipse;whiteSpace=wrap;html=1;" parent="1" vertex="1">
          <mxGeometry x="354" y="600" width="120" height="80" as="geometry" />
        </mxCell>
        <mxCell id="g-_DGgSMqAKhC7G5JaoX-6" value="" style="edgeStyle=orthogonalEdgeStyle;rounded=0;orthogonalLoop=1;jettySize=auto;html=1;" edge="1" parent="1" source="eOiUbFQpEhBaJ0-t1juN-21" target="g-_DGgSMqAKhC7G5JaoX-5">
          <mxGeometry relative="1" as="geometry" />
        </mxCell>
        <mxCell id="eOiUbFQpEhBaJ0-t1juN-21" value="กำหนด d = &#39;a&#39;" style="whiteSpace=wrap;html=1;" parent="1" vertex="1">
          <mxGeometry x="354" y="400" width="120" height="60" as="geometry" />
        </mxCell>
        <mxCell id="g-_DGgSMqAKhC7G5JaoX-4" value="" style="edgeStyle=orthogonalEdgeStyle;rounded=0;orthogonalLoop=1;jettySize=auto;html=1;" edge="1" parent="1" source="eOiUbFQpEhBaJ0-t1juN-25" target="eOiUbFQpEhBaJ0-t1juN-21">
          <mxGeometry relative="1" as="geometry" />
        </mxCell>
        <mxCell id="eOiUbFQpEhBaJ0-t1juN-25" value="กำหนด c = &quot;Haha&quot;" style="whiteSpace=wrap;html=1;" parent="1" vertex="1">
          <mxGeometry x="354" y="310" width="120" height="60" as="geometry" />
        </mxCell>
        <mxCell id="g-_DGgSMqAKhC7G5JaoX-7" value="" style="edgeStyle=orthogonalEdgeStyle;rounded=0;orthogonalLoop=1;jettySize=auto;html=1;" edge="1" parent="1" source="g-_DGgSMqAKhC7G5JaoX-5" target="eOiUbFQpEhBaJ0-t1juN-12">
          <mxGeometry relative="1" as="geometry" />
        </mxCell>
        <mxCell id="g-_DGgSMqAKhC7G5JaoX-5" value="แสดงผลค่าตัวแปร a, b, c, และ d" style="shape=parallelogram;perimeter=parallelogramPerimeter;whiteSpace=wrap;html=1;fixedSize=1;" vertex="1" parent="1">
          <mxGeometry x="304" y="500" width="220" height="60" as="geometry" />
        </mxCell>
      </root>
    </mxGraphModel>
  </diagram>
</mxfile>
